HIERARCHY
ROOT pelvis
{
  OFFSET 0 100 0
  CHANNELS 6 Xposition Yposition Zposition Zrotation Xrotation Yrotation
  JOINT pelvis_right_femur
  {
    OFFSET -10.78128 -3.44521 -0.5502486
    CHANNELS 3 Zrotation Xrotation Yrotation
    JOINT right_femur_tibia
    {
      OFFSET -0.8047443 -44.0398 -0.1307829
      CHANNELS 3 Zrotation Xrotation Yrotation
      JOINT right_tibia_foot
      {
        OFFSET 3.006224 -47.83518 -5
        CHANNELS 3 Zrotation Xrotation Yrotation
        End Site
        {
          OFFSET 0 -5 15
        }
      }
    }
  }
  JOINT pelvis_left_femur
  {
    OFFSET 10.78128 -3.44521 -0.5502486
    CHANNELS 3 Zrotation Xrotation Yrotation
    JOINT left_femur_tibia
    {
      OFFSET 0.8047443 -44.0398 -0.1307829
      CHANNELS 3 Zrotation Xrotation Yrotation
      JOINT left_tibia_foot
      {
        OFFSET -4.370144 -48.10324 -4.275266
        CHANNELS 3 Zrotation Xrotation Yrotation
        End Site
        {
          OFFSET 0 -5 15
        }
      }
    }
  }
  JOINT pelvis_spine1
  {
    OFFSET 0 6.468898 -3.129235
    CHANNELS 3 Zrotation Xrotation Yrotation
    JOINT spine1
    {
      OFFSET 0 23.15396 4.99043
      CHANNELS 3 Zrotation Xrotation Yrotation
      JOINT spine2
      {
        OFFSET 0 20.79997 -5.064912
        CHANNELS 3 Zrotation Xrotation Yrotation
        JOINT neck
        {
          OFFSET 0 14.38658 9.616178
          CHANNELS 3 Zrotation Xrotation Yrotation
          End Site
          {
            OFFSET 0 20 0
          }
        }
      }
      JOINT right_manubrium
      {
        OFFSET -5.722621 16.35077 3.967754
        CHANNELS 3 Zrotation Xrotation Yrotation
        JOINT right_clavicle
        {
          OFFSET -13.16364 1.694482 -4.693211
          CHANNELS 3 Zrotation Xrotation Yrotation
          JOINT right_humerus
          {
            OFFSET -28.5034 -0.3100689 -2.792744
            CHANNELS 3 Zrotation Xrotation Yrotation
            JOINT right_radius
            {
              OFFSET -25.15693 0.02248979 -1.271978
              CHANNELS 3 Zrotation Xrotation Yrotation
              End Site
              {
                OFFSET -15 0 0
              }
            }
          }
        }
      }
      JOINT left_manubrium
      {
        OFFSET 5.722621 16.35077 3.967754
        CHANNELS 3 Zrotation Xrotation Yrotation
        JOINT left_clavicle
        {
          OFFSET 13.16364 1.694482 -4.693211
          CHANNELS 3 Zrotation Xrotation Yrotation
          JOINT left_humerus
          {
            OFFSET 29.39168 -1.063119 -2.237045
            CHANNELS 3 Zrotation Xrotation Yrotation
            JOINT left_radius
            {
              OFFSET 24.59957 -0.9528479 0.9047498
              CHANNELS 3 Zrotation Xrotation Yrotation
              End Site
              {
                OFFSET 15 -0 -0
              }
            }
          }
        }
      }
    }
  }
}
MOTION
Frames: 19
Frame Time: 0.0416666666667
-0.6703934 105.7724 117.1817 2.59579 -16.82135 2.363213 1.868092 15.16822 -6.95131 -0 22.86887 -0 -15.36298 2.583368 0.8962927 -0.4878929 -10.08819 -6.74425 -0 18.69055 -0 -0.186393 -3.742322 21.15553 0.4745754 -0.9639409 5.758555 -3.079257 15.46667 -2.36298 1.333627 24.72688 4.325354 5.574343 -10.20689 2.307259 -2.251673 -25.03391 12.1968 90.86386 16.07785 -9.440976 -0 0 19.42204 -28.8894 7.517204 12.4581 5.811031 -22.84821 -11.8739 -92.507 5.443091 26.33663 0 0 -1.241161 13.63282 16.48161 -6.85337
0.5997564 105.7679 123.366 2.367052 -16.8541 1.573554 1.868092 15.16822 -6.95131 -0 22.86887 -0 -15.36299 2.583369 0.896293 -0.4878932 -10.08819 -6.74425 -0 18.69055 -0 -0.1863931 -3.742322 21.15553 0.4745753 -0.9639407 5.758555 -3.079257 15.46667 -2.362979 1.333627 24.72688 4.325354 5.574343 -10.20689 2.307259 -2.251672 -25.03391 12.1968 90.86386 16.07785 -9.440976 -0 0 19.42204 -28.8894 7.517204 12.4581 5.811031 -22.84821 -11.8739 -92.507 5.443091 26.33663 0 0 -1.241161 13.63282 16.48161 -6.85337
1.788142 105.7633 129.5666 2.137827 -16.88384 0.7836343 1.868091 15.16822 -6.951311 -0 22.86887 -0 -15.36299 2.58337 0.8962933 -0.4878935 -10.08819 -6.74425 -0 18.69055 -0 -0.186393 -3.742322 21.15553 0.4745752 -0.9639406 5.758555 -3.079257 15.46667 -2.362979 1.333627 24.72688 4.325354 5.574344 -10.20689 2.307259 -2.251672 -25.03391 12.1968 90.86386 16.07785 -9.440976 -0 0 19.42204 -28.8894 7.517203 12.4581 5.811032 -22.84821 -11.8739 -92.507 5.443091 26.33663 0 0 -1.241161 13.63282 16.48161 -6.853371
2.894557 105.7588 135.7823 1.908161 -16.91054 -0.006521629 1.868091 15.16822 -6.951311 -0 22.86887 -0 -15.36299 2.583371 0.8962936 -0.4878938 -10.08819 -6.74425 -0 18.69055 -0 -0.1863929 -3.742322 21.15553 0.4745751 -0.9639405 5.758555 -3.079257 15.46667 -2.362979 1.333627 24.72688 4.325354 5.574344 -10.20689 2.307258 -2.251672 -25.03391 12.1968 90.86386 16.07785 -9.440976 -0 0 19.42204 -28.8894 7.517203 12.4581 5.811032 -22.84821 -11.8739 -92.507 5.44309 26.33663 0 0 -1.241162 13.63282 16.48161 -6.853372
3.918808 105.7543 142.012 1.678101 -16.93422 -0.7968888 1.868091 15.16822 -6.951312 -0 22.86887 -0 -15.36299 2.583372 0.8962937 -0.487894 -10.08819 -6.74425 -0 18.69055 -0 -0.1863927 -3.742322 21.15553 0.4745751 -0.9639404 5.758555 -3.079257 15.46667 -2.362979 1.333627 24.72688 4.325354 5.574344 -10.20689 2.307258 -2.251672 -25.03391 12.1968 90.86386 16.07785 -9.440976 -0 0 19.42204 -28.8894 7.517203 12.4581 5.811032 -22.84821 -11.8739 -92.50699 5.443089 26.33663 0 0 -1.241162 13.63282 16.48161 -6.853373
4.860717 105.7497 148.2547 1.447694 -16.95485 -1.587442 1.868091 15.16822 -6.951312 -0 22.86887 -0 -15.36299 2.583373 0.8962938 -0.4878941 -10.08819 -6.74425 -0 18.69055 -0 -0.1863924 -3.742322 21.15553 0.4745751 -0.9639404 5.758554 -3.079258 15.46667 -2.362979 1.333627 24.72688 4.325354 5.574344 -10.20689 2.307258 -2.251673 -25.03391 12.1968 90.86386 16.07785 -9.440977 -0 0 19.42204 -28.8894 7.517202 12.4581 5.811032 -22.84821 -11.8739 -92.50699 5.443089 26.33663 0 0 -1.241163 13.63282 16.48161 -6.853373
5.720118 105.7452 154.5094 1.216988 -16.97244 -2.378156 1.868091 15.16822 -6.951312 -0 22.86887 -0 -15.36299 2.583374 0.8962938 -0.4878942 -10.08819 -6.74425 -0 18.69055 -0 -0.1863922 -3.742322 21.15553 0.4745751 -0.9639404 5.758554 -3.079258 15.46668 -2.362979 1.333627 24.72688 4.325354 5.574344 -10.20689 2.307258 -2.251673 -25.03391 12.1968 90.86386 16.07785 -9.440977 -0 0 19.42204 -28.8894 7.517202 12.4581 5.811032 -22.84822 -11.8739 -92.50699 5.443088 26.33663 0 0 -1.241163 13.63282 16.48161 -6.853374
6.496863 105.7407 160.7748 0.9860309 -16.98699 -3.169006 1.868091 15.16822 -6.951313 -0 22.86887 -0 -15.36299 2.583375 0.8962938 -0.4878943 -10.08819 -6.74425 -0 18.69055 -0 -0.1863919 -3.742322 21.15553 0.4745751 -0.9639404 5.758554 -3.079258 15.46668 -2.362979 1.333627 24.72688 4.325354 5.574345 -10.20689 2.307257 -2.251673 -25.03391 12.1968 90.86386 16.07785 -9.440978 -0 0 19.42204 -28.8894 7.517202 12.4581 5.811032 -22.84822 -11.8739 -92.50699 5.443088 26.33663 0 0 -1.241164 13.63282 16.48161 -6.853374
7.190817 105.7361 167.0499 0.7548694 -16.99848 -3.959965 1.868091 15.16822 -6.951313 -0 22.86887 -0 -15.36299 2.583375 0.8962936 -0.4878942 -10.08819 -6.744249 -0 18.69055 -0 -0.1863917 -3.742323 21.15553 0.4745752 -0.9639405 5.758554 -3.079258 15.46668 -2.362979 1.333627 24.72688 4.325354 5.574345 -10.20689 2.307257 -2.251673 -25.03391 12.1968 90.86386 16.07785 -9.440978 -0 0 19.42204 -28.8894 7.517202 12.4581 5.811032 -22.84822 -11.8739 -92.50699 5.443087 26.33663 0 0 -1.241165 13.63282 16.48161 -6.853375
7.801857 105.7316 173.3337 0.5235517 -17.00692 -4.751009 1.868091 15.16822 -6.951313 -0 22.86887 -0 -15.36299 2.583376 0.8962934 -0.4878941 -10.08819 -6.744249 -0 18.69055 -0 -0.1863914 -3.742323 21.15553 0.4745753 -0.9639406 5.758555 -3.079258 15.46668 -2.36298 1.333627 24.72688 4.325354 5.574345 -10.20689 2.307257 -2.251673 -25.03391 12.1968 90.86386 16.07785 -9.440978 -0 0 19.42204 -28.8894 7.517201 12.4581 5.811032 -22.84822 -11.8739 -92.50699 5.443087 26.33663 0 0 -1.241165 13.63282 16.48161 -6.853375
8.329878 105.7271 179.625 0.2921256 -17.0123 -5.542111 1.868091 15.16822 -6.951313 -0 22.86887 -0 -15.36299 2.583376 0.8962932 -0.487894 -10.08819 -6.744249 -0 18.69055 -0 -0.1863912 -3.742323 21.15553 0.4745754 -0.9639407 5.758555 -3.079258 15.46668 -2.36298 1.333627 24.72688 4.325353 5.574344 -10.20689 2.307256 -2.251674 -25.03391 12.1968 90.86386 16.07785 -9.440979 -0 0 19.42204 -28.8894 7.517201 12.4581 5.811032 -22.84822 -11.8739 -92.50699 5.443086 26.33663 0 0 -1.241166 13.63282 16.48161 -6.853375
8.774787 105.7225 185.9227 0.06063897 -17.01463 -6.333245 1.868091 15.16822 -6.951313 -0 22.86887 -0 -15.36299 2.583376 0.8962929 -0.4878938 -10.08819 -6.744248 -0 18.69055 -0 -0.1863911 -3.742323 21.15553 0.4745754 -0.9639409 5.758555 -3.079258 15.46668 -2.36298 1.333627 24.72688 4.325353 5.574344 -10.20689 2.307256 -2.251674 -25.03391 12.1968 90.86386 16.07785 -9.440979 -0 0 19.42204 -28.8894 7.517201 12.4581 5.811032 -22.84822 -11.8739 -92.50699 5.443086 26.33663 0 0 -1.241166 13.63282 16.48161 -6.853375
9.136507 105.718 192.2257 -0.1708602 -17.01391 -7.124387 1.868092 15.16822 -6.951313 -0 22.86887 -0 -15.36299 2.583375 0.8962927 -0.4878937 -10.08819 -6.744248 -0 18.69055 -0 -0.186391 -3.742323 21.15553 0.4745755 -0.963941 5.758555 -3.079258 15.46668 -2.36298 1.333627 24.72688 4.325353 5.574344 -10.20689 2.307256 -2.251674 -25.03391 12.1968 90.86386 16.07784 -9.440979 -0 0 19.42204 -28.8894 7.517202 12.4581 5.811032 -22.84822 -11.8739 -92.50699 5.443086 26.33663 0 0 -1.241166 13.63282 16.48161 -6.853375
9.414975 105.7135 198.533 -0.4023241 -17.01012 -7.915509 1.868092 15.16822 -6.951313 -0 22.86887 -0 -15.36299 2.583375 0.8962924 -0.4878935 -10.08819 -6.744248 -0 18.69055 -0 -0.1863909 -3.742322 21.15553 0.4745756 -0.9639411 5.758555 -3.079258 15.46668 -2.36298 1.333627 24.72688 4.325353 5.574344 -10.20689 2.307256 -2.251674 -25.03391 12.1968 90.86386 16.07784 -9.440979 -0 0 19.42204 -28.8894 7.517202 12.4581 5.811032 -22.84822 -11.8739 -92.50699 5.443086 26.33663 0 0 -1.241166 13.63282 16.48161 -6.853375
9.610142 105.7089 204.8433 -0.6337048 -17.00328 -8.706587 1.868092 15.16822 -6.951313 -0 22.86887 -0 -15.36299 2.583374 0.8962922 -0.4878933 -10.08819 -6.744248 -0 18.69056 -0 -0.1863909 -3.742322 21.15553 0.4745757 -0.9639412 5.758555 -3.079257 15.46668 -2.36298 1.333627 24.72688 4.325353 5.574344 -10.20689 2.307256 -2.251674 -25.03391 12.1968 90.86386 16.07784 -9.440979 -0 0 19.42204 -28.8894 7.517202 12.4581 5.811032 -22.84822 -11.8739 -92.50699 5.443087 26.33663 0 0 -1.241166 13.63282 16.48161 -6.853374
9.721974 105.7044 211.1557 -0.8649543 -16.99339 -9.497594 1.868092 15.16822 -6.951313 -0 22.86887 -0 -15.36299 2.583373 0.896292 -0.4878931 -10.08819 -6.744248 -0 18.69056 -0 -0.1863909 -3.742322 21.15553 0.4745757 -0.9639413 5.758555 -3.079257 15.46668 -2.36298 1.333627 24.72688 4.325353 5.574344 -10.20689 2.307256 -2.251674 -25.03391 12.1968 90.86386 16.07784 -9.440979 -0 0 19.42204 -28.8894 7.517202 12.4581 5.811031 -22.84822 -11.8739 -92.50699 5.443087 26.33663 0 0 -1.241166 13.63282 16.48161 -6.853374
9.750452 105.6999 217.4691 -1.096025 -16.98044 -10.2885 1.868093 15.16822 -6.951312 -0 22.86887 -0 -15.36299 2.583373 0.8962918 -0.4878929 -10.08819 -6.744248 -0 18.69055 -0 -0.186391 -3.742322 21.15553 0.4745758 -0.9639414 5.758555 -3.079257 15.46668 -2.36298 1.333627 24.72688 4.325352 5.574344 -10.20689 2.307256 -2.251674 -25.03391 12.1968 90.86386 16.07784 -9.440979 -0 0 19.42204 -28.8894 7.517202 12.4581 5.811031 -22.84822 -11.8739 -92.50699 5.443087 26.33663 0 0 -1.241166 13.63282 16.48161 -6.853374
9.695571 105.6954 223.7822 -1.326869 -16.96445 -11.07929 1.868093 15.16822 -6.951312 -0 22.86887 -0 -15.36299 2.583372 0.8962917 -0.4878928 -10.08819 -6.744248 -0 18.69055 -0 -0.1863911 -3.742322 21.15553 0.4745758 -0.9639415 5.758555 -3.079257 15.46668 -2.36298 1.333627 24.72688 4.325352 5.574343 -10.20689 2.307256 -2.251674 -25.03391 12.1968 90.86386 16.07784 -9.440979 -0 0 19.42204 -28.8894 7.517203 12.4581 5.811031 -22.84822 -11.8739 -92.50699 5.443088 26.33663 0 0 -1.241166 13.63282 16.48161 -6.853373
9.557341 105.6908 230.0941 -1.557438 -16.94541 -11.86993 1.868093 15.16822 -6.951312 -0 22.86887 -0 -15.36299 2.583371 0.8962916 -0.4878926 -10.08819 -6.744248 -0 18.69055 -0 -0.1863913 -3.742322 21.15553 0.4745758 -0.9639415 5.758555 -3.079257 15.46668 -2.36298 1.333627 24.72688 4.325352 5.574343 -10.20689 2.307257 -2.251674 -25.03391 12.1968 90.86386 16.07784 -9.440979 -0 0 19.42204 -28.8894 7.517203 12.4581 5.811031 -22.84822 -11.8739 -92.50699 5.443088 26.33663 0 0 -1.241165 13.63282 16.48161 -6.853373
